HIERARCHY
ROOT Hips
{
	OFFSET	0.00	0.00	0.00
	CHANNELS 6 Xposition Yposition Zposition Zrotation Xrotation Yrotation
	JOINT Spine
	{
		OFFSET	 0.00	0.01	 0.00
		CHANNELS 3 Zrotation Xrotation Yrotation
		JOINT Spine1
		{
			OFFSET	 0.00	 2.45913012437421	 0.00
			CHANNELS 3 Zrotation Xrotation Yrotation
            JOINT Neck
            {
                OFFSET	 0.00	 2.48462964506057	 0.00
                CHANNELS 3 Zrotation Xrotation Yrotation
                JOINT Head
                {
                    OFFSET	 0.00	 0.927524780924562	 0.00
                    CHANNELS 3 Zrotation Xrotation Yrotation
                    End Site 
                    {
                        OFFSET	 0.00	 1.14999962169752	 0.00
                    }
                }
            }
			JOINT LeftShoulder
			{
				OFFSET	 0.00	 2.48462964506057	 0.00
				CHANNELS 3 Zrotation Xrotation Yrotation
				JOINT LeftUpArm
				{
					OFFSET	 0.00	 1.24881979654096	 0.00
					CHANNELS 3 Zrotation Xrotation Yrotation
					JOINT LeftForeArm
					{
						OFFSET	 0.00	2.59758046908119	 0.00
						CHANNELS 3 Zrotation Xrotation Yrotation
						JOINT LeftHand
						{
							OFFSET	 0.00	2.45542024364365	 0.00
							CHANNELS 3 Zrotation Xrotation Yrotation
							JOINT LeftHandThumb 
							{
								OFFSET	 0.00	0.00	 0.00
								CHANNELS 3 Zrotation Xrotation Yrotation
								End Site
								{
									OFFSET	 0.00	0.00	1.00000003353624
								}
							}
							JOINT L_Wrist_End 
							{
								OFFSET	 0.00	0.99999967115358	 0.00
								CHANNELS 3 Zrotation Xrotation Yrotation
								End Site 
								{
									OFFSET	 0.00	 0.00	 0.00
								}
							}
						}
					}
				}
			}
			JOINT RightShoulder
			{
				OFFSET	 0.00	 2.48462964506057	 0.00
				CHANNELS 3 Zrotation Xrotation Yrotation
				JOINT RightUpArm
				{
					OFFSET	 0.00	 1.24881979654096	 0.00
					CHANNELS 3 Zrotation Xrotation Yrotation
					JOINT RightForeArm
					{
						OFFSET	 0.00	2.59758046908119	 0.00
						CHANNELS 3 Zrotation Xrotation Yrotation
						JOINT RightHand
						{
							OFFSET	 0.00	2.45542024364365	 0.00
							CHANNELS 3 Zrotation Xrotation Yrotation
							JOINT RightHandThumb 
							{
								OFFSET	 0.00	0.00	 0.00
								CHANNELS 3 Zrotation Xrotation Yrotation
								End Site
								{
									OFFSET	 0.00	0.00	1.00000003353624
								}
							}
							JOINT R_Wrist_End 
							{
								OFFSET	 0.00	0.99999967115358	 0.00
								CHANNELS 3 Zrotation Xrotation Yrotation
								End Site 
								{
									OFFSET	 0.00	 0.00	 0.00
								}
							}
						}
					}
				}
			}
		}
	}
	JOINT LeftUpLeg
	{
		OFFSET	 1.2719394002717	 0.00	 0.00
		CHANNELS 3 Zrotation Xrotation Yrotation
		JOINT LeftLowLeg
		{
			OFFSET	 0.00	-4.3429100912261	 0.00
			CHANNELS 3 Zrotation Xrotation Yrotation
			JOINT LeftFoot
			{
				OFFSET	 0.00	-4.48767017425826	 0.00
				CHANNELS 3 Zrotation Xrotation Yrotation
				JOINT LeftToeBase
                {
                    OFFSET	 0.00	0.00	 1.51507020887566
                    CHANNELS 3 Zrotation Xrotation Yrotation
                    End Site 
                    {
                        OFFSET	 0.00	0.00	 0.75000010571191
                    }
                }
			}
		}
	}
	JOINT RightUpLeg
	{
		OFFSET	 -1.2719393604653	 0.00	 0.00
		CHANNELS 3 Zrotation Xrotation Yrotation
		JOINT RightLowLeg
		{
			OFFSET	 0.00	-4.3429100912261	 0.00
			CHANNELS 3 Zrotation Xrotation Yrotation
			JOINT RightFoot
			{
				OFFSET	 0.00	-4.48767017425826	 0.00
				CHANNELS 3 Zrotation Xrotation Yrotation
				JOINT RightToeBase
                {
                    OFFSET	 0.00	0.00	 1.51507020887566
                    CHANNELS 3 Zrotation Xrotation Yrotation
                    End Site 
                    {
                        OFFSET	 0.00	0.00	 0.749999965609858
                    }
                }   
			}
		}
	}
}
MOTION 
Frames:	10 
Frame Time: 0.02 
 1.263779983520508 5.133400268554688 10.520400390625 -65.5941 83.8156 61.6417 4.30842 -22.6233 -2.65075 -2.02363 36.7661 0.166669 -3.79819 27.046 6.7594 13.9815 -65.4997 16.3578 -117.9309 3.56653 -12.2456 -36.546 -0.562685 37.841 0.0 36.0651 0.0 12.0896 -6.14933 2.8387 0.0 0.0 0.0 0.0 0.0 0.0 119.216995 2.52652 3.274 38.9501 8.36028 -21.0847 0.0 34.3352 0.0 -8.32237 1.24515 10.0956 0.0 0.0 0.0 0.0 0.0 0.0 6.65813 10.4159 12.3706 0.0 1.73088 0.0 -6.83514 6.9469404 7.5334 0.0 -9.75713 0.0 6.92096 8.00892 4.35529 0.0 6.71437 0.0 22.3134 6.98575 -26.1004 0.0 -12.88129 0.0 
  1.245749969482422 5.12531982421875 10.519200439453124 -65.5093 83.8205 61.4428 4.45869 -22.6868 -2.49964 -2.14137 36.731 0.146753 -3.61285 27.2147 6.59393 14.0716 -65.4686 16.4002 -117.9066 3.58104 -12.2725 -36.5277 -0.606604 37.7312 0.0 35.7108 0.0 12.0945 -6.24511 2.80327 0.0 0.0 0.0 0.0 0.0 0.0 119.2625 2.49305 3.22902 39.0161 8.44682 -21.0686 0.0 34.5456 0.0 -8.2193 1.3606 9.80056 0.0 0.0 0.0 0.0 0.0 0.0 6.72802 10.4738 12.5668 0.0 1.789 0.0 -6.90937 6.92262 7.48284 0.0 -9.77761 0.0 7.00719 8.11192 4.55658 0.0 6.62984 0.0 22.2323 6.91739 -26.2258 0.0 -12.88008 0.0 
  1.2283300018310548 5.1175299072265625 10.518399658203125 -65.3918 83.7986 61.1386 4.7005 -22.7581 -2.23718 -2.34619 36.7814 0.139366 -3.53983 27.4121 6.62264 14.3248 -65.26 16.4311 -117.8162 3.57044 -12.2898 -36.5329 -0.645181 37.5196 0.0 35.3246 0.0 11.9815 -6.27685 2.84204 0.0 0.0 0.0 0.0 0.0 0.0 119.3394 2.50908 3.24096 39.1211 8.39859 -21.0723 0.0 34.6273 0.0 -8.21169 1.56178 9.66161 0.0 0.0 0.0 0.0 0.0 0.0 6.80104 10.588 12.6473 0.0 1.80373 0.0 -7.0221 6.88931 7.58479 0.0 -9.790939 0.0 7.08269 8.21553 4.56974 0.0 6.56528 0.0 22.1096 6.97079 -26.1066 0.0 -12.89009 0.0 
  1.21197998046875 5.109509887695313 10.5168994140625 -65.4454 83.7777 61.0193 4.98683 -22.837 -1.93123 -2.60718 36.8223 0.111255 -3.16217 27.4952 6.27988 14.1776 -64.9544 16.3699 -117.6913 3.53743 -12.3197 -36.5381 -0.733811 37.3205 0.0 34.8954 0.0 11.9415 -6.29213 2.75163 0.0 0.0 0.0 0.0 0.0 0.0 119.4816 2.44943 3.23933 39.2339 8.44317 -21.1397 0.0 34.4841 0.0 -8.06496 1.41162 9.76685 0.0 0.0 0.0 0.0 0.0 0.0 6.88695 10.6646 12.7928 0.0 1.86265 0.0 -7.13296 6.8261604 7.59063 0.0 -9.79332 0.0 7.14914 8.31665 4.41541 0.0 6.47931 0.0 21.9867 7.05632 -25.8318 0.0 -12.8449 0.0 
  1.1958999633789062 5.103940124511719 10.515699462890625 -65.716 83.7599 61.0811 5.23328 -22.8797 -1.67766 -2.78713 36.8575 0.095511 -2.91199 27.5122 5.97048 14.039 -64.9555 16.2665 -117.651505 3.4534 -12.2923 -36.5041 -0.773924 37.0567 0.0 34.4474 0.0 11.8398 -6.33875 2.96071 0.0 0.0 0.0 0.0 0.0 0.0 119.6224 2.45299 3.23676 39.3044 8.39024 -21.1969 0.0 34.2149 0.0 -7.95445 1.34762 9.99218 0.0 0.0 0.0 0.0 0.0 0.0 6.97247 10.7381 12.8227 0.0 1.8765 0.0 -7.28028 6.7702904 7.71563 0.0 -9.8009205 0.0 7.22953 8.33112 4.55549 0.0 6.48751 0.0 21.9554 7.05551 -25.7634 0.0 -12.87471 0.0 
  1.1801499938964843 5.098680114746093 10.515 -65.8707 83.7404 60.9914 5.47508 -22.9144 -1.40283 -2.96498 36.9477 0.122152 -2.83597 27.6087 5.93029 14.0779 -64.7688 16.1934 -117.570496 3.37084 -12.4213 -36.5091 -0.924461 36.9616 0.0 33.9867 0.0 11.8427 -6.40028 3.03423 0.0 0.0 0.0 0.0 0.0 0.0 119.7404 2.4609 3.25327 39.4087 8.31583 -21.1977 0.0 33.7868 0.0 -7.66759 1.12974 10.1669 0.0 0.0 0.0 0.0 0.0 0.0 7.03989 10.8552 13.0042 0.0 1.83564 0.0 -7.38121 6.7890396 7.74731 0.0 -9.84966 0.0 7.30784 8.33792 4.82345 0.0 6.53228 0.0 21.9291 7.02151 -25.7838 0.0 -12.8709 0.0 
  1.1644200134277343 5.094110107421875 10.514300537109374 -65.7777 83.7007 60.6702 5.61813 -22.8936 -1.23991 -3.00385 37.0376 0.175093 -2.80371 27.6888 5.84895 14.0178 -64.715 16.0114 -117.5486 3.30374 -12.4758 -36.5013 -1.09737 36.795 0.0 33.536 0.0 11.7059 -6.46342 2.68674 0.0 0.0 0.0 0.0 0.0 0.0 119.781296 2.50587 3.2999 39.5271 8.12351 -21.0804 0.0 33.3524 0.0 -7.1493 0.581814 9.98011 0.0 0.0 0.0 0.0 0.0 0.0 7.11935 11.0125 13.1221 0.0 1.77466 0.0 -7.52732 6.7963495 7.77191 0.0 -9.85112 0.0 7.40365 8.31681 5.20942 0.0 6.69891 0.0 21.9543 6.8896503 -25.8907 0.0 -12.87841 0.0 
  1.147969970703125 5.0898001098632815 10.513599853515625 -65.7857 83.6868 60.4998 5.66445 -22.8827 -1.15727 -2.9903 37.1234 0.256386 -2.72478 27.8185 5.72258 13.9676 -64.6946 15.8857 -117.5243 3.24609 -12.5021 -36.526 -1.30107 36.598 0.0 33.0734 0.0 11.6361 -6.48979 2.62228 0.0 0.0 0.0 0.0 0.0 0.0 119.815 2.41675 3.26411 39.5928 8.0473 -21.8266 0.0 32.4352 0.0 -8.02512 1.16756 10.6787 0.0 0.0 0.0 0.0 0.0 0.0 7.20151 11.1303 13.183 0.0 1.71854 0.0 -7.68899 6.8269796 7.77721 0.0 -9.842791 0.0 7.49802 8.26433 5.54921 0.0 6.88863 0.0 21.9701 6.7358704 -25.9994 0.0 -12.86448 0.0 
  1.1323000335693358 5.0888299560546875 10.513199462890626 -65.78 83.6434 60.2592 5.68639 -22.844 -1.12933 -2.86953 37.308 0.355969 -2.84687 27.861 5.77029 13.828 -64.5605 15.5511 -117.5687 3.17961 -12.5399 -36.527 -1.48252 36.3918 0.0 32.6488 0.0 11.5175 -6.54545 2.59771 0.0 0.0 0.0 0.0 0.0 0.0 119.7884 2.43538 3.25441 39.6284 7.94944 -22.0144 0.0 31.6769 0.0 -7.66195 1.04154 10.5363 0.0 0.0 0.0 0.0 0.0 0.0 7.30519 11.2544 13.0924 0.0 1.68352 0.0 -7.90201 6.8079004 7.90903 0.0 -9.82461 0.0 7.59227 8.19821 5.65146 0.0 7.0712 0.0 21.8954 6.76077 -25.8921 0.0 -12.95433 0.0 
  1.11572998046875 5.088569946289063 10.512900390625 -65.8089 83.6242 60.2763 5.44707 -22.814 -1.43152 -2.49546 37.5273 0.433391 -3.09423 27.8088 5.87442 13.6156 -64.6041 15.1691 -117.7537 3.07146 -12.6171 -36.5042 -1.62709 36.2567 0.0 32.209 0.0 11.3973 -6.56319 2.342 0.0 0.0 0.0 0.0 0.0 0.0 119.673004 2.4423 3.34961 39.6595 7.75222 -22.2188 0.0 30.895 0.0 -7.46805 0.980982 10.2547 0.0 0.0 0.0 0.0 0.0 0.0 7.45279 11.2684 12.5231 0.0 1.71809 0.0 -8.13856 6.7646 8.23902 0.0 -9.8556595 0.0 7.69521 8.14542 5.38785 0.0 7.18922 0.0 21.7648 6.8515396 -25.6837 0.0 -12.99979 0.0 
